<?xml version="1.0" encoding="utf-8"?>
<!-- Generator: Adobe Illustrator 27.2.0, SVG Export Plug-In . SVG Version: 6.00 Build 0)  -->
<svg version="1.1" id="Camada_1" xmlns="http://www.w3.org/2000/svg" xmlns:xlink="http://www.w3.org/1999/xlink" x="0px" y="0px"
	 viewBox="0 0 24 24" style="enable-background:new 0 0 24 24;" xml:space="preserve">
<g>
	<path d="M12,4C9.8,4,8,5.8,8,8s1.8,4,4,4s4-1.8,4-4S14.2,4,12,4z M12,10c-1.1,0-2-0.9-2-2s0.9-2,2-2s2,0.9,2,2S13.1,10,12,10z"/>
	<path d="M12,0C5.4,0,0,5.4,0,12s5.4,12,12,12c6.6,0,12-5.4,12-12C24,5.4,18.6,0,12,0z M7.1,20.7c-0.1-0.5-0.1-1,0-1.5
		c0.5-2.7,3-4.6,5.8-4.1c2.7,0.4,4.5,2.9,4.1,5.6C15.5,21.5,13.8,22,12,22C10.2,22,8.5,21.5,7.1,20.7z M18.9,19.2c0-0.1,0-0.2,0-0.4
		c-0.6-3.8-4.3-6.4-8.1-5.7c-3.1,0.5-5.4,3.1-5.8,6.1C3.2,17.4,2,14.8,2,12C2,6.5,6.5,2,12,2c5.5,0,10,4.5,10,10
		C22,14.8,20.8,17.4,18.9,19.2z"/>
</g>
</svg>
