<?xml version="1.0" encoding="utf-8"?>
<!-- Generator: Adobe Illustrator 27.2.0, SVG Export Plug-In . SVG Version: 6.00 Build 0)  -->
<svg version="1.1" id="Camada_1" xmlns="http://www.w3.org/2000/svg" xmlns:xlink="http://www.w3.org/1999/xlink" x="0px" y="0px"
	 viewBox="0 0 700 700" style="enable-background:new 0 0 700 700;" xml:space="preserve">
<style type="text/css">
	.st0{fill:#395060;}
	.st1{fill:#FFFFFF;}
</style>
<g>
	<g>
		<circle class="st0" cx="510.4" cy="332" r="75"/>
		<path class="st0" d="M626.5,378.3C608.1,424.3,563,457,510.4,457c-68.9,0-125-56.1-125-125s56.1-125,125-125
			c36.7,0,69.7,15.9,92.6,41.1c-5.3-13.7-11.6-26.9-19-39.4c15.9,0.9,26.7-0.4,24.7-5.8c-13.4-37.2-103.1-83-131.3-96.6
			C439.4,86,396,74.5,350,74.5c-52.2,0-100.9,14.8-142.2,40.3c-35.3,17.7-108.9,58-121,91.5c-2.1,5.8,10,6.9,27.3,5.7
			c-5.8,10.2-10.9,20.8-15.4,31.8c22.8-24.2,55.1-39.3,90.9-39.3c68.9,0,125,56.1,125,125s-56.1,125-125,125
			c-52.4,0-97.4-32.4-115.9-78.3c-0.8,9.3-1.2,18.8-1.2,28.3c0,63.9,5.3,114.5,15.1,154.5c61.5,77.1,156.2,126.5,262.4,126.5
			S550.9,636.1,612.4,559c9.8-40.1,15.1-90.7,15.1-154.5C627.5,395.7,627.2,386.9,626.5,378.3z M349,502.4c-9.7,0-34.9-32-34.9-71.4
			s9.8-71.4,34.9-71.4c19.9,0,34.9,32,34.9,71.4S357.1,502.4,349,502.4z"/>
		<circle class="st0" cx="189.6" cy="329.5" r="75"/>
	</g>
	<g>
		<ellipse class="st1" cx="349" cy="430.9" rx="34.9" ry="71.4"/>
		<path class="st1" d="M685.5,350c0-185.3-150.2-335.5-335.5-335.5S14.5,164.7,14.5,350c0,79.1,27.4,151.7,73.1,209
			c-9.8-40.1-15.1-90.7-15.1-154.5c0-9.6,0.4-19,1.2-28.3c18.5,45.9,63.5,78.3,115.9,78.3c68.9,0,125-56.1,125-125
			s-56.1-125-125-125c-35.8,0-68.1,15.1-90.9,39.3c4.4-11,9.6-21.6,15.4-31.8c-17.3,1.2-29.4,0.1-27.3-5.7
			c12-33.5,85.7-73.8,121-91.5c41.3-25.5,90.1-40.3,142.2-40.3c46,0,89.4,11.5,127.4,31.7c28.2,13.6,117.9,59.4,131.3,96.6
			c2,5.5-8.8,6.7-24.7,5.8c7.3,12.5,13.7,25.7,19,39.4C580.1,222.9,547,207,510.4,207c-68.9,0-125,56.1-125,125s56.1,125,125,125
			c52.6,0,97.7-32.7,116.1-78.7c0.7,8.7,1,17.4,1,26.2c0,63.9-5.3,114.5-15.1,154.5C658.1,501.7,685.5,429.1,685.5,350z
			 M189.6,254.5c41.4,0,75,33.6,75,75s-33.6,75-75,75s-75-33.6-75-75S148.3,254.5,189.6,254.5z M510.4,407c-41.4,0-75-33.6-75-75
			s33.6-75,75-75s75,33.6,75,75S551.7,407,510.4,407z"/>
	</g>
</g>
</svg>
