<?xml version="1.0" encoding="utf-8"?>
<!-- Generator: Adobe Illustrator 27.2.0, SVG Export Plug-In . SVG Version: 6.00 Build 0)  -->
<svg version="1.1" id="Camada_1" xmlns="http://www.w3.org/2000/svg" xmlns:xlink="http://www.w3.org/1999/xlink" x="0px" y="0px"
	 viewBox="0 0 527.9 121.3" style="enable-background:new 0 0 527.9 121.3;" xml:space="preserve">
<style type="text/css">
	.st0{fill:#98C8FF;}
</style>
<g>
	<path class="st0" d="M68.7,19.1c0-2.4,0.6-4.2,2-5.2c1.4-1.2,3.2-1.8,5.8-1.8c1.6,0,3,0.2,4.4,0.6s2.2,0.6,2.6,0.8v59.1
		c0,6.4-0.8,12-2.6,16.6c-1.8,4.8-4.2,8.6-7.4,11.8c-3.2,3.2-6.8,5.6-11.2,7c-4.2,1.6-9,2.4-14,2.4c-5.2,0-9.8-0.8-14.2-2.6
		c-4.4-1.8-8-4.2-11.2-7.2s-5.6-6.8-7.4-11c-2-4.4-2.8-9-2.8-14s0.8-9.8,2.6-14s4-8,7-11c3-3.2,6.6-5.6,10.6-7.2
		c4-1.8,8.4-2.6,13.4-2.6s9.6,1,13.4,3c3.8,2,6.8,4.4,9,7.2V19.1z M68.7,75.6c0-3-0.6-5.8-1.6-8.4s-2.4-4.8-4.2-6.8
		s-3.8-3.4-6.4-4.6c-2.4-1-5.2-1.6-8.2-1.6s-5.8,0.6-8.2,1.6s-4.6,2.6-6.4,4.4C32,62,30.6,64.4,29.6,67s-1.4,5.4-1.4,8.6
		c0,3,0.4,5.8,1.4,8.4s2.4,4.8,4.2,6.6c1.8,1.8,4,3.4,6.4,4.4s5.2,1.6,8.2,1.6s5.8-0.6,8.2-1.6s4.6-2.4,6.4-4.4
		c1.8-1.8,3.2-4,4.2-6.6C68.1,81.8,68.7,78.8,68.7,75.6z"/>
	<path class="st0" d="M124.5,41.1c5,0,9.8,0.8,14.2,2.6s8.2,4.2,11.4,7.2c3.2,3.2,5.8,6.8,7.6,11s2.8,8.8,2.8,13.8
		c0,4.8-1,9.4-2.8,13.6s-4.4,8-7.6,11c-3.2,3.2-7,5.6-11.4,7.4s-9.2,2.6-14.2,2.6s-9.8-0.8-14.2-2.6c-4.4-1.8-8.2-4.2-11.4-7.4
		c-3.2-3.2-5.8-6.8-7.6-11c-2-4-2.8-8.6-2.8-13.6s1-9.6,2.8-13.8s4.4-8,7.6-11c3.2-3.2,7-5.6,11.4-7.2
		C114.8,41.9,119.3,41.1,124.5,41.1z M124.5,97.1c3,0,5.8-0.6,8.2-1.6c2.6-1,4.6-2.6,6.4-4.6c1.8-2,3.2-4.2,4.2-6.8
		c1-2.6,1.6-5.4,1.6-8.4s-0.6-6-1.6-8.6s-2.4-5-4.2-6.8c-1.8-2-4-3.4-6.4-4.6c-2.6-1-5.2-1.6-8.2-1.6s-5.8,0.6-8.4,1.6
		c-2.4,1-4.6,2.6-6.4,4.6s-3.2,4.2-4.2,6.8s-1.6,5.6-1.6,8.6s0.6,5.8,1.6,8.4s2.4,4.8,4.2,6.8c1.8,2,4,3.4,6.4,4.6
		C118.7,96.5,121.3,97.1,124.5,97.1z"/>
	<g>
		<path class="st0" d="M286.6,18.2c0.8,0,1.4,0.2,1.7,0.7c0.3,0.4,0.4,1.1,0.2,1.9l-29.9,79.9c-0.2,0.6-0.6,1.1-1,1.3
			c-0.4,0.3-1,0.4-1.6,0.4h-16.3c-0.6,0-1.1-0.1-1.6-0.4c-0.4-0.3-0.7-0.7-0.9-1.3l-29.8-79.9c-0.3-0.8-0.3-1.5,0.1-1.9
			c0.3-0.4,0.9-0.7,1.7-0.7h15.4c0.6,0,1.1,0.1,1.6,0.4s0.7,0.7,0.9,1.3l20.6,62.2L269,20c0.1-0.6,0.4-1,0.9-1.3s1-0.4,1.7-0.4h15
			 M286.6,12.2h-15.1c-1.8,0-3.6,0.5-5,1.5c-1.6,1.1-2.8,2.7-3.3,4.6l-15.4,45.2l-14.9-45.1c-0.6-1.9-1.7-3.5-3.3-4.6
			c-1.4-1-3.1-1.5-4.9-1.5h-15.4c-3.7,0-5.7,1.9-6.5,3.1c-0.9,1.2-2.3,3.8-0.9,7.6l29.7,79.7c0.6,1.9,1.7,3.4,3.3,4.5
			c1.4,0.9,3.1,1.4,4.9,1.4H256c1.8,0,3.5-0.5,4.9-1.5c1.5-1,2.6-2.5,3.3-4.2L294.1,23c0.1-0.2,0.1-0.3,0.2-0.5c1-3.5-0.3-6-1.2-7.1
			C292.3,14.1,290.3,12.2,286.6,12.2L286.6,12.2z"/>
		<path class="st0" d="M325.5,18.2c0.7,0,1.3,0.2,1.7,0.6s0.6,0.9,0.6,1.7v79.8c0,0.7-0.2,1.3-0.6,1.7c-0.4,0.4-0.9,0.6-1.7,0.6h-14
			c-0.7,0-1.3-0.2-1.7-0.6c-0.4-0.4-0.6-0.9-0.6-1.7V20.5c0-0.7,0.2-1.3,0.6-1.7c0.4-0.4,0.9-0.6,1.7-0.6L325.5,18.2 M325.5,12.2
			h-14c-3,0-4.9,1.3-5.9,2.3s-2.3,2.9-2.3,5.9v79.8c0,3,1.3,4.9,2.3,5.9s2.9,2.3,5.9,2.3h14c3,0,4.9-1.3,5.9-2.3s2.3-2.9,2.3-5.9
			V20.5c0-3-1.3-4.9-2.3-5.9C330.4,13.5,328.5,12.2,325.5,12.2L325.5,12.2z"/>
		<path class="st0" d="M385.7,17c3.7,0,7.2,0.4,10.5,1.2c3.3,0.8,6.3,1.9,8.8,3.3c0.6,0.3,1,0.7,1.1,1.2s0.1,1.1-0.2,1.8l-4.5,10
			c-0.3,0.7-0.7,1.1-1.2,1.3c-0.2,0.1-0.4,0.1-0.6,0.1c-0.3,0-0.7-0.1-1.1-0.3c-1.7-0.9-3.5-1.6-5.3-2s-3.7-0.7-5.5-0.7
			c-4,0-7.2,0.8-9.6,2.3c-2.3,1.5-3.5,3.7-3.5,6.3c0,1.7,0.6,3.3,1.7,4.6c1.2,1.3,3.1,2.6,5.7,3.8l8.9,4.3c5.7,2.7,9.9,6,12.6,9.8
			c2.7,3.8,4.1,8.4,4.1,13.6c0,7.9-2.8,14.4-8.3,19.3s-13,7.4-22.5,7.4c-4.7,0-8.8-0.5-12.3-1.4s-6.8-2.5-9.8-4.6
			c-0.4-0.4-0.7-0.8-0.9-1.3c-0.2-0.5-0.1-1.1,0.1-1.7l3.9-10.2c0.3-0.7,0.7-1.1,1.2-1.3c0.2-0.1,0.3-0.1,0.5-0.1
			c0.4,0,0.8,0.2,1.3,0.5c2.1,1.3,4.3,2.2,6.5,2.8c2.2,0.6,4.5,0.9,6.9,0.9c4.4,0,7.9-1,10.5-2.9s3.9-4.4,3.9-7.5
			c0-2.2-0.7-4.2-2-5.9s-3.5-3.2-6.4-4.7l-9-4.3c-5.5-2.5-9.6-5.6-12.2-9.2c-2.7-3.6-4-7.7-4-12.3c0-7.1,2.8-12.9,8.5-17.5
			C369.1,19.3,376.5,17,385.7,17 M385.7,11c-10.5,0-19.2,2.7-25.9,8.1c-7.1,5.7-10.7,13.2-10.7,22.2c0,6,1.8,11.3,5.3,15.9
			c3.3,4.3,8.2,8,14.5,11l8.9,4.2c2.7,1.3,3.9,2.5,4.3,3c0.5,0.6,0.7,1.3,0.7,2.2c0,1-0.2,1.8-1.4,2.6c-1.5,1.1-3.9,1.7-6.9,1.7
			c-1.9,0-3.7-0.2-5.3-0.7c-1.6-0.4-3.3-1.1-4.8-2.1c-1.4-0.9-3-1.4-4.5-1.4c-0.8,0-1.7,0.1-2.5,0.4c-2.1,0.8-3.8,2.4-4.7,4.5
			c0,0.1-0.1,0.2-0.1,0.3l-3.9,10.2c0,0,0,0,0,0.1c-0.7,1.8-0.8,3.7-0.3,5.5c0.5,1.7,1.5,3.2,2.8,4.3c0.1,0.1,0.3,0.2,0.4,0.3
			c3.6,2.5,7.5,4.3,11.7,5.4c4,1.1,8.6,1.6,13.9,1.6c10.9,0,19.8-3,26.4-8.9c6.9-6.1,10.3-14.1,10.3-23.8c0-6.5-1.8-12.2-5.2-17.1
			c-3.3-4.6-8.4-8.6-15-11.7l-8.8-4.3c0,0-0.1,0-0.1-0.1c-2.5-1.1-3.4-2-3.6-2.3c-0.3-0.3-0.3-0.5-0.3-0.7c0-0.6,0.1-0.9,0.8-1.3
			c1.3-0.9,3.5-1.3,6.2-1.3c1.3,0,2.7,0.2,4,0.5c1.4,0.3,2.7,0.8,4,1.5c0.1,0.1,0.2,0.1,0.3,0.2c1.2,0.5,2.4,0.8,3.6,0.8
			c1,0,1.9-0.2,2.8-0.5c1.4-0.5,3.3-1.7,4.5-4.5l4.5-10c1.1-2.5,0.9-4.6,0.5-5.9c-0.6-2.1-2-3.8-4.1-4.9c-3-1.7-6.5-3-10.3-3.9
			C393.8,11.4,389.8,11,385.7,11L385.7,11z"/>
		<path class="st0" d="M506.8,18.2c0.7,0,1.3,0.2,1.7,0.6c0.4,0.4,0.6,0.9,0.6,1.7v46.2c0,11.5-3.4,20.6-10.3,27.4
			s-16.1,10.2-27.8,10.2c-11.5,0-20.8-3.4-27.7-10.3c-6.9-6.9-10.4-16-10.4-27.4V20.5c0-0.7,0.2-1.3,0.6-1.7
			c0.4-0.4,0.9-0.6,1.7-0.6h14.3c0.7,0,1.3,0.2,1.7,0.6c0.4,0.4,0.6,0.9,0.6,1.7v46.4c0,6.1,1.7,11,5.2,14.7s8.2,5.5,14.1,5.5
			s10.6-1.8,14.1-5.5s5.2-8.6,5.2-14.7V20.5c0-0.7,0.2-1.3,0.6-1.7c0.4-0.4,0.9-0.6,1.7-0.6L506.8,18.2 M506.8,12.2h-14.3
			c-3,0-4.9,1.3-5.9,2.3c-1.1,1-2.3,2.9-2.3,5.9v46.4c0,4.6-1.2,8.1-3.6,10.6c-2.3,2.4-5.5,3.6-9.8,3.6c-4.2,0-7.4-1.2-9.7-3.6
			c-2.4-2.5-3.6-6-3.6-10.6V20.5c0-3-1.3-4.9-2.3-5.9c-1.1-1.1-3-2.3-5.9-2.3h-14.3c-3,0-4.9,1.3-5.9,2.3c-1.1,1-2.3,2.9-2.3,5.9
			v46.2c0,13,4.1,23.6,12.2,31.6s18.8,12,31.9,12c13.2,0,24-4,32-12s12.1-18.6,12.1-31.7V20.5c0-3-1.3-4.9-2.3-5.9
			C511.7,13.5,509.8,12.2,506.8,12.2L506.8,12.2z"/>
	</g>
	<path class="st0" d="M216.6,93.5c-0.9,0.4-2.1,1-3.5,1.6c-2.8,1.2-6.2,1.8-10.6,1.8c-3.2,0-6-0.4-8.6-1.2s-5-2-7-3.8
		c-2-1.6-3.6-3.8-4.8-6.6c-1.2-2.6-1.8-6-1.8-9.8s0.6-7,1.6-9.6s2.6-4.8,4.4-6.6c1.8-1.8,4-3.2,6.6-4c2.6-1,5.3-1.4,8.2-1.4l-5.1-13
		c-3.3,0.3-6.5,0.9-9.6,2c-4.4,1.6-8.2,3.8-11.4,6.8s-5.8,6.6-7.6,11s-2.8,9.4-2.8,15s1,10.6,2.8,14.8c1.8,4.2,4.4,7.8,7.6,10.8
		s7,5.2,11.2,6.6c4.4,1.4,9,2.2,13.8,2.2c3,0,6-0.2,8.4-0.6s4.6-1,6.6-1.6s3.6-1.2,5.2-2c0.3-0.2,0.6-0.3,0.9-0.5L216.6,93.5z"/>
</g>
</svg>
